<svg width="64" height="89" viewBox="0 0 64 89" fill="none" xmlns="http://www.w3.org/2000/svg">
<g id="Avatar">
<g id="Avatar_2">
<path id="Ellipse 212" d="M31.9998 64C49.6729 64 63.9998 49.6731 63.9998 32C63.9998 14.3269 49.6729 0 31.9998 0C14.3266 0 -0.000244141 14.3269 -0.000244141 32C-0.000244141 49.6731 14.3266 64 31.9998 64Z" fill="#EAEAFF"/>
<g id="Mask Group">
<g id="Avatar_3">
<path id="Vector" d="M31.9998 64C25.6708 64 19.4839 62.1232 14.2215 58.607C8.95915 55.0908 4.85763 50.0931 2.43563 44.2459C0.0136209 38.3986 -0.620086 31.9645 0.614641 25.7571C1.84937 19.5497 4.89707 13.8479 9.37235 9.37258C13.8476 4.8973 19.5495 1.8496 25.7569 0.61487C31.9643 -0.619857 38.3984 0.0138497 44.2456 2.43585C50.0929 4.85786 55.0906 8.95938 58.6068 14.2218C62.123 19.4841 63.9998 25.671 63.9998 32C63.9998 40.4869 60.6284 48.6263 54.6272 54.6274C48.626 60.6286 40.4867 64 31.9998 64Z" fill="#FFEBF0"/>
</g>
<path id="Vector_2" d="M35.9108 24.906C36.4736 24.6202 37.1125 24.52 37.7358 24.62C38.3214 24.6621 38.8853 24.8592 39.3698 25.191" fill="white"/>
<path id="Vector_3" d="M30.3567 24.906C29.7942 24.6204 29.1557 24.5202 28.5327 24.62C27.9467 24.662 27.3824 24.859 26.8977 25.191" fill="white"/>
<g id="Group">
<path id="Vector_4" d="M48.0677 71.64L52.7487 84.14C56.8168 82.2176 60.6023 79.747 63.9997 76.797C63.1747 74.385 62.4607 72.56 62.4607 72.56L48.0677 71.64Z" fill="#DA5742"/>
<path id="Vector_5" d="M11.2998 84.383L16.1858 71.307L1.79276 72.227C1.77676 72.243 0.919756 74.449 -0.000244141 77.207C3.41967 80.1057 7.22195 82.5203 11.2998 84.383Z" fill="#DA5742"/>
<path id="Vector_6" d="M48.0677 71.64L49.6867 75.893L63.9677 76.782C63.1907 74.54 62.4607 72.56 62.4607 72.56L48.0677 71.64Z" fill="#C43D28"/>
<path id="Vector_7" d="M16.3288 70.847L14.7058 75.1L0.205811 76.512C0.983811 74.291 1.93581 71.767 1.93581 71.767L16.3288 70.847Z" fill="#C43D28"/>
<path id="Vector_8" d="M15.7257 52.058C9.44175 54.914 2.55475 63.737 0.0157471 74.084H11.2507L9.39475 83.478C16.3173 87.0129 23.9809 88.8514 31.7537 88.842C39.558 88.8548 47.252 86.9994 54.1927 83.431L52.2247 75.29L63.5867 74.274C63.5707 74.274 60.9527 59.674 48.9717 52.774C39.3708 47.25 24.5807 48.075 15.7257 52.058Z" fill="#3D5CFF"/>
<path id="Vector_9" d="M14.3148 63.436L7.63379 74.084L11.4268 74.068L14.3148 63.436Z" fill="#224BF4"/>
<path id="Vector_10" d="M52.2257 75.29L55.6057 75.004L48.0677 62.103L52.2257 75.29Z" fill="#224BF4"/>
<path id="Vector_11" d="M11.3927 74.242C11.3533 74.2305 11.3196 74.2046 11.2985 74.1693C11.2774 74.1341 11.2703 74.0922 11.2787 74.052L14.4557 62.277C14.4672 62.2375 14.4932 62.2039 14.5284 62.1827C14.5636 62.1616 14.6055 62.1546 14.6457 62.163C14.6846 62.1751 14.7176 62.2013 14.7381 62.2364C14.7587 62.2716 14.7653 62.3132 14.7567 62.353L11.5787 74.131C11.57 74.1624 11.5513 74.1901 11.5256 74.2101C11.4998 74.2301 11.4683 74.2413 11.4357 74.242H11.3927Z" fill="#1F1F39"/>
<path id="Vector_12" d="M51.9228 75.29L47.8608 62.102C47.8543 62.083 47.8518 62.0628 47.8534 62.0428C47.8549 62.0228 47.8606 62.0033 47.8699 61.9855C47.8793 61.9677 47.8922 61.952 47.9078 61.9394C47.9234 61.9268 47.9414 61.9174 47.9608 61.912C47.9798 61.9055 47.9999 61.903 48.0199 61.9046C48.04 61.9062 48.0595 61.9118 48.0772 61.9212C48.095 61.9305 48.1107 61.9434 48.1233 61.959C48.136 61.9746 48.1453 61.9927 48.1508 62.012L52.2248 75.194C52.2312 75.213 52.2337 75.2332 52.2321 75.2532C52.2306 75.2732 52.2249 75.2927 52.2156 75.3105C52.2062 75.3282 52.1933 75.3439 52.1777 75.3566C52.1621 75.3692 52.1441 75.3785 52.1248 75.384C52.0928 75.384 52.0768 75.4 52.0618 75.4C52.03 75.3985 51.9995 75.3871 51.9746 75.3674C51.9496 75.3476 51.9315 75.3206 51.9228 75.29Z" fill="#1F1F39"/>
</g>
<path id="Vector_13" d="M20.6388 26.16C20.6388 26.16 16.9238 26.16 15.9238 24.541C15.6466 24.1023 15.5403 23.5769 15.6251 23.0649C15.7099 22.5529 15.9799 22.0899 16.3838 21.764C16.3838 21.764 14.3698 19.098 15.4338 16.654C15.7697 15.8554 16.368 15.1952 17.1298 14.7827C17.8916 14.3701 18.7714 14.2298 19.6238 14.385C19.6238 14.385 17.4808 10.593 20.0988 7.752C23.3048 4.261 28.6678 7.752 28.6678 7.752C28.7704 7.11583 29.0972 6.53734 29.589 6.12104C30.0809 5.70474 30.7054 5.47807 31.3498 5.482C33.6668 5.482 33.6668 6.882 33.6668 6.882C34.3364 6.05441 35.238 5.44576 36.2559 5.13413C37.2738 4.8225 38.3617 4.8221 39.3798 5.133C44.7278 6.704 43.8068 12.639 43.8068 12.639C44.1208 12.5729 44.4448 12.5704 44.7597 12.6317C45.0746 12.6929 45.3741 12.8167 45.6404 12.9957C45.9066 13.1747 46.1343 13.4053 46.3099 13.6738C46.4855 13.9423 46.6055 14.2433 46.6628 14.559C46.8719 15.2116 46.8226 15.9196 46.5248 16.5368C46.2271 17.1541 45.7037 17.6334 45.0628 17.876C45.0628 17.876 47.2208 17.527 47.7628 19.276C47.9924 20.0096 47.9772 20.7979 47.7197 21.5221C47.4621 22.2463 46.976 22.8672 46.3348 23.291L45.0768 29.393L21.1468 30.377L20.6388 26.16Z" fill="#1F1F39"/>
<g id="Group_2">
<g id="Group_3">
<path id="Vector_14" d="M16.4957 25.62C13.9127 26.81 13.6387 30.396 15.5907 32.65C17.5427 34.904 22.4617 34.38 22.4617 34.38L21.7477 26.318C21.7477 26.318 19.0817 24.426 16.4957 25.62Z" fill="#C43D28"/>
<g id="Group_4">
<path id="Vector_15" d="M47.5047 25.62C50.0917 26.81 50.3607 30.397 48.4047 32.65C46.4487 34.903 41.5377 34.38 41.5377 34.38L42.8547 26.21C43.5008 25.6939 44.2765 25.3658 45.0968 25.2618C45.9171 25.1577 46.7502 25.2816 47.5047 25.62Z" fill="#C43D28"/>
<path id="Vector_16" d="M42.9337 32.713C43.0514 31.762 43.4181 30.8589 43.9967 30.095C44.7603 29.0419 45.8471 28.2672 47.0917 27.889C47.117 27.8809 47.1437 27.8782 47.1701 27.8812C47.1965 27.8841 47.222 27.8926 47.2448 27.9062C47.2677 27.9197 47.2874 27.9379 47.3028 27.9596C47.3181 27.9812 47.3286 28.0059 47.3337 28.032C47.3412 28.057 47.3433 28.0834 47.3401 28.1093C47.3368 28.1352 47.3282 28.1601 47.3147 28.1825C47.3012 28.2049 47.2833 28.2243 47.2619 28.2393C47.2406 28.2544 47.2163 28.2648 47.1907 28.27C46.0399 28.6229 45.0322 29.3346 44.3147 30.301C43.7787 31.0052 43.4342 31.8362 43.3147 32.713C43.3139 32.7632 43.2937 32.811 43.2582 32.8465C43.2227 32.882 43.1749 32.9022 43.1247 32.903C43.0744 32.9025 43.0263 32.8823 42.9906 32.8468C42.9549 32.8114 42.9345 32.7633 42.9337 32.713V32.713Z" fill="#1F1F39"/>
<path id="Vector_17" d="M21.5587 32.714C21.4365 31.8379 21.0922 31.0076 20.5587 30.302C19.848 29.3301 18.8397 28.6167 17.6867 28.27C17.6372 28.2555 17.5948 28.2231 17.5678 28.1791C17.5408 28.1352 17.5312 28.0827 17.5407 28.032C17.5566 27.9828 17.5897 27.941 17.634 27.9143C17.6783 27.8877 17.7308 27.878 17.7817 27.887C19.0297 28.2588 20.1183 29.0357 20.8757 30.095C21.4618 30.8552 21.8299 31.7605 21.9407 32.714C21.9407 32.7645 21.9206 32.813 21.8849 32.8487C21.8492 32.8844 21.8007 32.9045 21.7502 32.9045C21.6997 32.9045 21.6512 32.8844 21.6155 32.8487C21.5798 32.813 21.5597 32.7645 21.5597 32.714H21.5587Z" fill="#1F1F39"/>
<path id="Vector_18" d="M26.6046 41.649L25.9536 50.663C25.9536 50.663 26.8536 52.647 31.6536 52.647C36.8426 52.647 38.2706 50.663 38.2706 50.663L38.0166 41.792C38.0166 41.792 41.2536 41.268 42.8086 35.429C43.7441 31.8417 44.0079 28.1123 43.5866 24.429C43.5866 24.429 35.9356 25.62 33.3486 22.449C30.7616 19.278 28.1596 16.083 24.3996 17.67C20.6396 19.257 21.1136 29.492 22.0996 34.364C22.719 37.2381 24.31 39.8109 26.6046 41.649Z" fill="#DA5742"/>
<path id="Vector_19" d="M28.2867 29.492C27.9475 29.46 27.6345 29.2961 27.4149 29.0355C27.1953 28.775 27.0868 28.4387 27.1127 28.099C27.0849 27.7581 27.1925 27.42 27.4123 27.158C27.632 26.8959 27.9462 26.731 28.2867 26.699C28.6274 26.7308 28.9418 26.8956 29.1618 27.1577C29.3817 27.4197 29.4895 27.758 29.4617 28.099C29.4876 28.4389 29.3789 28.7753 29.1592 29.0359C28.9394 29.2964 28.6261 29.4602 28.2867 29.492Z" fill="#1F1F39"/>
<path id="Vector_20" d="M36.8407 29.492C36.5015 29.46 36.1884 29.2961 35.9689 29.0355C35.7493 28.775 35.6408 28.4387 35.6667 28.099C35.6389 27.7581 35.7465 27.42 35.9662 27.158C36.186 26.8959 36.5002 26.731 36.8407 26.699C37.1813 26.7308 37.4958 26.8956 37.7157 27.1577C37.9357 27.4197 38.0435 27.758 38.0157 28.099C38.0415 28.4389 37.9329 28.7753 37.7131 29.0359C37.4933 29.2964 37.18 29.4602 36.8407 29.492Z" fill="#1F1F39"/>
<path id="Vector_21" d="M31.6667 30.016C32.0667 30.809 33.0947 30.416 33.0947 30.416C33.0947 30.416 32.0637 30.142 32.0637 29.349C32.0467 28.556 31.9837 25.842 31.9837 25.842C31.9837 25.842 31.2697 29.222 31.6667 30.016Z" fill="#1F1F39"/>
<path id="Vector_22" d="M26.2396 48.218C26.3186 48.202 34.8246 44.901 36.4276 43.394C36.4276 42.474 36.4596 41.794 36.4596 41.794C36.4596 41.794 34.9036 42.711 31.1396 42.584C29.5793 42.5908 28.0348 42.272 26.6046 41.648C26.6206 42.457 26.3186 47.9 26.2396 48.218Z" fill="#C43D28"/>
<g id="Group_5">
<path id="Vector_23" d="M38.9816 32.936C37.5886 32.936 36.4586 32.225 36.4586 31.349C36.4586 30.473 37.5886 29.762 38.9816 29.762C40.3746 29.762 41.5046 30.472 41.5046 31.349C41.5046 32.226 40.3756 32.936 38.9816 32.936Z" fill="#C43D28"/>
<path id="Vector_24" d="M25.6366 32.936C24.2436 32.936 23.1136 32.225 23.1136 31.349C23.1136 30.473 24.2436 29.762 25.6366 29.762C27.0296 29.762 28.1596 30.472 28.1596 31.349C28.1596 32.226 27.0306 32.936 25.6366 32.936Z" fill="#C43D28"/>
</g>
</g>
</g>
<path id="Vector_25" d="M32.5388 33.3C33.2189 33.0142 33.8589 32.6411 34.4428 32.19C34.4428 32.19 34.7598 32.031 34.9188 32.19C34.7977 32.6611 34.58 33.1018 34.2794 33.4842C33.9788 33.8665 33.6019 34.1822 33.1728 34.411C32.7436 34.5526 32.2803 34.5521 31.8515 34.4094C31.4228 34.2667 31.0514 33.9895 30.7928 33.619C30.3158 32.983 30.9518 33.142 30.9518 33.142C31.462 33.3139 32.0046 33.368 32.5388 33.3Z" fill="white"/>
<path id="Vector_26" d="M26.5067 38.379C28.8867 39.014 28.4427 40.125 29.4747 39.649C30.5237 39.172 30.8067 38.22 32.9067 38.537C34.9857 38.854 34.5417 39.965 35.8747 39.807C37.2077 39.649 39.4457 38.061 40.4747 37.107C41.5207 36.157 42.9967 34.57 42.9967 34.57C42.9967 34.57 42.0447 41.235 36.7447 42.822C32.7617 44.012 27.1127 43.457 24.5887 39.807C22.0647 36.157 21.9067 34.094 21.9067 34.094C21.9067 34.094 24.1287 37.744 26.5067 38.379Z" fill="#1F1F39"/>
<path id="Vector_27" d="M28.9367 37.586C28.9148 37.5723 28.896 37.5541 28.8816 37.5327C28.8672 37.5113 28.8574 37.4871 28.8528 37.4616C28.8483 37.4362 28.8492 37.4101 28.8553 37.385C28.8615 37.3599 28.8729 37.3364 28.8887 37.316L29.5237 36.364C29.5374 36.3421 29.5556 36.3233 29.577 36.3089C29.5984 36.2945 29.6226 36.2847 29.6481 36.2801C29.6735 36.2756 29.6996 36.2765 29.7247 36.2826C29.7498 36.2888 29.7733 36.3002 29.7937 36.316C29.8155 36.3298 29.8342 36.348 29.8485 36.3695C29.8629 36.3909 29.8726 36.4152 29.877 36.4406C29.8814 36.466 29.8805 36.4921 29.8742 36.5171C29.868 36.5422 29.8566 36.5656 29.8407 36.586L29.2057 37.538C29.1875 37.562 29.1641 37.5816 29.1372 37.5952C29.1104 37.6089 29.0808 37.6164 29.0507 37.617C29.011 37.6145 28.9722 37.6039 28.9367 37.586Z" fill="#1F1F39"/>
<path id="Vector_28" d="M25.5567 36.918C25.529 36.8756 25.5184 36.8242 25.5272 36.7742C25.5359 36.7243 25.5632 36.6795 25.6037 36.649L26.5567 36.014C26.5989 35.9872 26.6496 35.9771 26.6988 35.9858C26.7481 35.9945 26.7923 36.0213 26.8227 36.061C26.8506 36.1036 26.8612 36.1553 26.8523 36.2055C26.8433 36.2557 26.8156 36.3006 26.7747 36.331L25.8227 36.966C25.7891 36.986 25.7508 36.997 25.7117 36.998C25.6815 36.9972 25.6519 36.9896 25.625 36.9758C25.5982 36.9619 25.5748 36.9422 25.5567 36.918Z" fill="#1F1F39"/>
<path id="Vector_29" d="M32.3488 37.744V36.95C32.3495 36.8999 32.3698 36.852 32.4053 36.8165C32.4407 36.781 32.4886 36.7608 32.5388 36.76C32.5884 36.7624 32.6353 36.7832 32.6704 36.8184C32.7055 36.8535 32.7263 36.9004 32.7288 36.95V37.744C32.7297 37.7692 32.7255 37.7944 32.7163 37.8179C32.7071 37.8414 32.6931 37.8627 32.6753 37.8805C32.6575 37.8984 32.6361 37.9124 32.6126 37.9216C32.5891 37.9308 32.564 37.935 32.5388 37.934C32.4886 37.9332 32.4407 37.913 32.4053 37.8775C32.3698 37.842 32.3495 37.7942 32.3488 37.744V37.744Z" fill="#1F1F39"/>
<path id="Vector_30" d="M35.3648 37.332L35.0468 36.538C35.037 36.5141 35.0321 36.4884 35.0324 36.4626C35.0327 36.4367 35.0381 36.4112 35.0485 36.3875C35.0589 36.3638 35.0739 36.3424 35.0926 36.3247C35.1114 36.3069 35.1336 36.2931 35.1578 36.284C35.1817 36.2742 35.2073 36.2693 35.2332 36.2696C35.2591 36.2699 35.2846 36.2754 35.3083 36.2857C35.332 36.2961 35.3533 36.3111 35.3711 36.3299C35.3889 36.3486 35.4027 36.3708 35.4118 36.395L35.7308 37.189C35.7406 37.2129 35.7455 37.2386 35.7452 37.2644C35.7449 37.2903 35.7394 37.3158 35.7291 37.3395C35.7187 37.3632 35.7037 37.3846 35.6849 37.4023C35.6661 37.4201 35.644 37.434 35.6198 37.443C35.6028 37.458 35.5868 37.458 35.5548 37.458C35.5142 37.458 35.4746 37.4461 35.4408 37.4237C35.407 37.4013 35.3805 37.3694 35.3648 37.332Z" fill="#1F1F39"/>
<path id="Vector_31" d="M38.9487 37.11L37.8367 36.475C37.7905 36.4493 37.7564 36.4064 37.7418 36.3556C37.7272 36.3048 37.7333 36.2503 37.7587 36.204C37.7844 36.1581 37.8272 36.1242 37.8777 36.1096C37.9282 36.095 37.9825 36.1009 38.0287 36.126L39.1367 36.761C39.1794 36.7807 39.2138 36.8147 39.2339 36.8572C39.254 36.8998 39.2584 36.948 39.2465 36.9934C39.2346 37.0389 39.207 37.0787 39.1686 37.1059C39.1303 37.1331 39.0836 37.1459 39.0367 37.142C39.0055 37.1376 38.9755 37.1267 38.9487 37.11Z" fill="#1F1F39"/>
</g>
<g id="Group_6" opacity="0.592">
<g id="Group_7" opacity="0.592">
<path id="Vector_32" opacity="0.592" d="M23.0898 60.247C23.2425 60.3268 23.4099 60.375 23.5817 60.3885C23.7535 60.4021 23.9263 60.3808 24.0898 60.326C24.5028 60.215 24.9308 60.009 25.3438 60.226C25.5197 60.3224 25.6587 60.4744 25.7391 60.6582C25.8194 60.8421 25.8365 61.0474 25.7878 61.242C25.7558 61.385 25.9778 61.448 26.0098 61.305C26.0538 61.127 26.0537 60.941 26.0097 60.763C25.9657 60.585 25.879 60.4204 25.7571 60.2834C25.6352 60.1465 25.4818 60.0413 25.3101 59.9769C25.1384 59.9125 24.9536 59.8909 24.7718 59.914C24.3682 60.0381 23.9536 60.1232 23.5338 60.168C23.0738 60.136 22.9578 59.722 22.8828 59.322C22.8793 59.3072 22.873 59.2933 22.8642 59.2809C22.8554 59.2686 22.8443 59.2581 22.8314 59.2501C22.8186 59.242 22.8042 59.2366 22.7893 59.2341C22.7743 59.2316 22.759 59.2321 22.7443 59.2355C22.7295 59.2389 22.7155 59.2452 22.7032 59.254C22.6908 59.2628 22.6803 59.274 22.6723 59.2868C22.6643 59.2997 22.6589 59.314 22.6564 59.329C22.6539 59.3439 22.6543 59.3592 22.6578 59.374C22.6847 59.7096 22.8393 60.022 23.0898 60.247Z" fill="#BFE3C6"/>
<path id="Vector_33" opacity="0.592" d="M20.8518 68.133C21.0372 68.485 21.3248 68.7726 21.6768 68.958C22.0418 69.18 22.4228 69.466 22.3278 69.942C22.2168 70.45 21.7248 70.736 21.3118 70.974C21.2845 70.9908 21.265 71.0178 21.2576 71.0491C21.2502 71.0803 21.2555 71.1132 21.2723 71.1405C21.2891 71.1678 21.3161 71.1873 21.3474 71.1947C21.3786 71.2021 21.4115 71.1968 21.4388 71.18C21.8775 70.978 22.2431 70.6455 22.4858 70.228C22.5712 70.0502 22.6015 69.851 22.5728 69.6559C22.5441 69.4607 22.4578 69.2787 22.3248 69.133C22.0388 68.833 21.6248 68.689 21.3408 68.403C21.1647 68.2249 21.0465 67.9977 21.0017 67.7513C20.9569 67.5049 20.9876 67.2507 21.0898 67.022C21.1248 66.9 20.8838 66.848 20.8358 66.975C20.7599 67.159 20.7221 67.3566 20.7249 67.5556C20.7276 67.7547 20.7708 67.9511 20.8518 68.133Z" fill="#BFE3C6"/>
<path id="Vector_34" opacity="0.592" d="M8.44178 63.992C8.40976 63.8454 8.42302 63.6925 8.4798 63.5536C8.53659 63.4146 8.63422 63.2962 8.75978 63.214C9.35978 62.833 9.96578 63.389 10.5528 63.436C11.0928 63.484 11.4418 63.008 11.5838 62.536C11.6501 62.2987 11.6661 62.0501 11.6306 61.8062C11.5951 61.5623 11.509 61.3286 11.3778 61.12C11.3609 61.0927 11.3339 61.0732 11.3027 61.0658C11.2715 61.0584 11.2386 61.0637 11.2113 61.0805C11.184 61.0973 11.1645 61.1243 11.157 61.1556C11.1496 61.1868 11.1549 61.2197 11.1718 61.247C11.3206 61.4778 11.4023 61.7454 11.408 62.02C11.4136 62.2945 11.3429 62.5653 11.2038 62.802C11.1368 62.9507 11.0167 63.0689 10.867 63.1335C10.7173 63.1981 10.5489 63.2043 10.3948 63.151C10.1146 63.0387 9.82812 62.9429 9.53678 62.864C9.30328 62.8008 9.05545 62.8163 8.83164 62.9081C8.60784 62.9999 8.42056 63.163 8.29878 63.372C8.20918 63.6154 8.18202 63.8774 8.21978 64.134C8.23512 64.4501 8.28304 64.7638 8.36278 65.07C8.39478 65.213 8.61678 65.149 8.58478 65.007C8.49841 64.6753 8.45043 64.3347 8.44178 63.992Z" fill="#BFE3C6"/>
<path id="Vector_35" opacity="0.592" d="M16.4728 80.242C16.5385 80.218 16.609 80.2099 16.6785 80.2183C16.748 80.2266 16.8145 80.2512 16.8728 80.29C17.102 80.4422 17.3148 80.6178 17.5078 80.814C17.9179 81.1581 18.4146 81.383 18.9438 81.464C19.1748 81.501 19.4112 81.485 19.6351 81.4172C19.859 81.3494 20.0646 81.2316 20.2363 81.0726C20.408 80.9137 20.5412 80.7178 20.626 80.4997C20.7108 80.2816 20.7449 80.0472 20.7258 79.814C20.6938 79.671 20.4718 79.733 20.5038 79.877C20.5268 80.1524 20.4563 80.4276 20.3037 80.658C20.1511 80.8884 19.9253 81.0607 19.6628 81.147C19.3826 81.2294 19.0874 81.248 18.7991 81.2012C18.5108 81.1545 18.2366 81.0437 17.9968 80.877C17.7462 80.7148 17.5118 80.529 17.2968 80.322C17.1334 80.155 16.9249 80.0392 16.6968 79.989C16.3138 79.94 15.9018 80.321 16.0918 80.702C16.1548 80.833 16.3618 80.718 16.2978 80.575C16.2338 80.432 16.3618 80.305 16.4728 80.242Z" fill="#BFE3C6"/>
<path id="Vector_36" opacity="0.592" d="M32.6107 77.131C32.6254 77.3536 32.6936 77.5695 32.8095 77.7601C32.9255 77.9507 33.0858 78.1106 33.2767 78.226C33.6767 78.526 34.2447 78.797 34.3397 79.337C34.4397 79.937 33.7397 80.067 33.2927 80.019C33.1337 80.003 33.1497 80.241 33.2927 80.257C33.5075 80.3021 33.7305 80.2874 33.9374 80.2146C34.1444 80.1418 34.3275 80.0136 34.4667 79.844C34.5665 79.6365 34.5926 79.4013 34.5408 79.177C34.489 78.9527 34.3624 78.7527 34.1817 78.61C33.8167 78.242 33.2927 78.067 33.0107 77.623C32.888 77.3502 32.857 77.0451 32.9223 76.7532C32.9875 76.4614 33.1456 76.1985 33.3727 76.004C33.4677 75.91 33.2927 75.735 33.1977 75.846C32.8505 76.1875 32.6415 76.645 32.6107 77.131V77.131Z" fill="#BFE3C6"/>
<path id="Vector_37" opacity="0.592" d="M45.9098 79.924C45.7966 80.1269 45.7412 80.357 45.7496 80.5892C45.7581 80.8214 45.8301 81.0469 45.9578 81.241C46.1165 81.4714 46.2296 81.73 46.2908 82.003C46.3214 82.269 46.2476 82.5364 46.0848 82.749C45.9993 82.8553 45.8923 82.9425 45.7708 83.0047C45.6494 83.067 45.5162 83.1031 45.3799 83.1105C45.2437 83.118 45.1073 83.0967 44.9798 83.048C44.8523 82.9993 44.7365 82.9244 44.6398 82.828C44.6162 82.8072 44.5855 82.7962 44.554 82.7972C44.5225 82.7982 44.4926 82.8112 44.4703 82.8334C44.448 82.8557 44.435 82.8857 44.434 82.9171C44.433 82.9486 44.444 82.9793 44.4648 83.003C44.645 83.1704 44.8699 83.2819 45.1122 83.324C45.3545 83.3661 45.6038 83.3369 45.8298 83.24C46.0487 83.1344 46.2317 82.9669 46.3562 82.7582C46.4806 82.5494 46.541 82.3087 46.5298 82.066C46.4978 81.511 45.9748 81.114 45.9748 80.543C45.9795 80.2792 46.083 80.0268 46.2648 79.8357C46.4467 79.6446 46.6936 79.5287 46.9568 79.511C46.9884 79.511 47.0187 79.4985 47.041 79.4761C47.0633 79.4538 47.0758 79.4236 47.0758 79.392C47.0758 79.3604 47.0633 79.3302 47.041 79.3078C47.0187 79.2855 46.9884 79.273 46.9568 79.273C46.7413 79.2833 46.532 79.3485 46.3487 79.4624C46.1655 79.5764 46.0144 79.7353 45.9098 79.924Z" fill="#BFE3C6"/>
<path id="Vector_38" opacity="0.592" d="M38.9108 58.057C39.1143 58.4798 39.394 58.8615 39.7358 59.183C39.9258 59.389 40.0848 59.691 39.7838 59.883C39.5167 60.027 39.2127 60.088 38.9108 60.058C38.8792 60.058 38.8489 60.0705 38.8266 60.0928C38.8043 60.1152 38.7918 60.1454 38.7918 60.177C38.7918 60.2086 38.8043 60.2388 38.8266 60.2611C38.8489 60.2835 38.8792 60.296 38.9108 60.296C39.3108 60.312 40.0058 60.233 40.1648 59.804C40.3238 59.391 39.9108 59.026 39.6568 58.757C39.2644 58.383 39.0361 57.8688 39.0218 57.327C39.0228 57.0907 39.0964 56.8604 39.2327 56.6674C39.369 56.4744 39.5614 56.328 39.7838 56.248C39.7994 56.2438 39.814 56.2366 39.8269 56.2267C39.8397 56.2168 39.8504 56.2045 39.8585 56.1905C39.8666 56.1765 39.8718 56.161 39.8739 56.145C39.876 56.1289 39.875 56.1126 39.8708 56.097C39.8666 56.0814 39.8593 56.0667 39.8495 56.0539C39.8396 56.0411 39.8273 56.0303 39.8133 56.0222C39.7993 56.0141 39.7838 56.0089 39.7677 56.0068C39.7517 56.0047 39.7354 56.0058 39.7198 56.01C39.5285 56.0867 39.355 56.2015 39.2096 56.3476C39.0643 56.4936 38.9503 56.6677 38.8746 56.8593C38.7989 57.0509 38.763 57.256 38.7692 57.4619C38.7755 57.6678 38.8236 57.8703 38.9108 58.057Z" fill="#BFE3C6"/>
<path id="Vector_39" opacity="0.592" d="M38.7198 67.308C39.1958 67.562 39.2908 68.149 39.4498 68.608C39.5083 68.835 39.6192 69.0452 39.7736 69.2217C39.928 69.3981 40.1216 69.5359 40.3388 69.624C40.8057 69.7906 41.3159 69.7906 41.7828 69.624C42.0496 69.5028 42.2894 69.3295 42.4882 69.1143C42.6871 68.8992 42.841 68.6464 42.9408 68.371C43.0038 68.228 42.7658 68.165 42.7188 68.308C42.622 68.5697 42.4697 68.8073 42.2724 69.0046C42.0751 69.2018 41.8375 69.3541 41.5758 69.451C41.3175 69.5281 41.0446 69.5423 40.7797 69.4926C40.5148 69.4428 40.2656 69.3305 40.0528 69.165C39.6718 68.816 39.6398 68.245 39.4528 67.784C39.3786 67.5865 39.2593 67.4091 39.1045 67.2659C38.9496 67.1227 38.7635 67.0176 38.5608 66.959C38.3288 66.9011 38.0857 66.904 37.8551 66.9672C37.6245 67.0304 37.414 67.1519 37.2438 67.32C37.1168 67.463 37.2758 67.62 37.3868 67.51C37.5559 67.3344 37.7781 67.2194 38.0191 67.1829C38.2601 67.1464 38.5064 67.1904 38.7198 67.308Z" fill="#BFE3C6"/>
<path id="Vector_40" opacity="0.592" d="M53.3358 62.817C53.2044 63.2198 53.2083 63.6545 53.3468 64.055C53.4258 64.468 53.4468 64.944 53.0298 65.182C52.8487 65.2715 52.6412 65.2919 52.4462 65.2392C52.2512 65.1865 52.0821 65.0645 51.9708 64.896C51.8918 64.769 51.6848 64.896 51.7648 65.023C51.8674 65.1851 52.0109 65.3174 52.1808 65.4066C52.3507 65.4957 52.541 65.5386 52.7328 65.531C52.9228 65.5155 53.1045 65.446 53.2563 65.3306C53.4082 65.2153 53.5239 65.0589 53.5898 64.88C53.6596 64.4286 53.6254 63.9672 53.4898 63.531C53.4407 63.2972 53.4822 63.0535 53.6058 62.849C53.6571 62.7649 53.734 62.6995 53.8253 62.6624C53.9166 62.6253 54.0173 62.6185 54.1128 62.643C54.2558 62.661 54.3198 62.436 54.1768 62.389C54.0087 62.3511 53.8326 62.3731 53.6791 62.4513C53.5255 62.5294 53.4041 62.6588 53.3358 62.817Z" fill="#BFE3C6"/>
</g>
<path id="Vector_41" opacity="0.592" d="M62.9942 72.0498L63.0107 72.208L51.4413 73.4131L51.4248 73.255L62.9942 72.0498Z" fill="#BFE3C6"/>
<path id="Vector_42" opacity="0.592" d="M12.0101 71.4089L12.0136 71.5678L0.559202 71.814L0.555786 71.655L12.0101 71.4089Z" fill="#BFE3C6"/>
</g>
</g>
</g>
<g id="Icon">
<g id="Ellipse 72">
<path id="Vector_43" d="M53.9998 20C59.5226 20 63.9998 15.5228 63.9998 10C63.9998 4.47715 59.5226 0 53.9998 0C48.4769 0 43.9998 4.47715 43.9998 10C43.9998 15.5228 48.4769 20 53.9998 20Z" fill="#3D5CFF"/>
<path id="Vector_44" d="M53.9998 19.5C59.2465 19.5 63.4998 15.2467 63.4998 10C63.4998 4.75329 59.2465 0.5 53.9998 0.5C48.7531 0.5 44.4998 4.75329 44.4998 10C44.4998 15.2467 48.7531 19.5 53.9998 19.5Z" stroke="white"/>
</g>
<g id="icon/camera">
<path id="Subtract" d="M57.5417 14.166H50.4577C50.1817 14.1657 49.9171 14.056 49.7219 13.8608C49.5268 13.6656 49.417 13.401 49.4167 13.125V8.125C49.4167 7.84882 49.5264 7.58393 49.7216 7.38855C49.9168 7.19317 50.1816 7.08327 50.4577 7.083H51.8677L52.3777 6.063C52.4121 5.99353 52.4653 5.93512 52.5312 5.89445C52.5972 5.85378 52.6733 5.83249 52.7507 5.833H55.2507C55.3282 5.83283 55.4041 5.85427 55.47 5.89491C55.5359 5.93554 55.5891 5.99375 55.6237 6.063L56.1327 7.083H57.5417C57.8179 7.083 58.0828 7.19265 58.2782 7.38784C58.4736 7.58304 58.5835 7.84782 58.5837 8.124V13.124C58.5837 13.4004 58.474 13.6654 58.2786 13.8608C58.0831 14.0562 57.8181 14.166 57.5417 14.166ZM54.0007 8.541C53.5885 8.54061 53.1854 8.66249 52.8424 8.89125C52.4994 9.12 52.232 9.44534 52.074 9.8261C51.9159 10.2069 51.8744 10.626 51.9545 11.0303C52.0347 11.4347 52.2331 11.8063 52.5244 12.0979C52.8158 12.3896 53.1871 12.5882 53.5914 12.6688C53.9958 12.7494 54.4149 12.7082 54.7958 12.5506C55.1767 12.3929 55.5023 12.1258 55.7314 11.783C55.9605 11.4403 56.0827 11.0373 56.0827 10.625C56.0822 10.0728 55.8628 9.54334 55.4725 9.15268C55.0822 8.76203 54.5529 8.54206 54.0007 8.541Z" fill="white"/>
</g>
</g>
</g>
</svg>
